# xmcd
#
# Track frame offsets: 
#        150
#        13442
#        26337
#        37607
#        50479
#        65464
#        78017
#        90575
#        101305
#        113665
#        125990
#        144065
#        156450
#        172490
#        196002
#        210497
#        226224
#        239477
#        253544
#        265144
#        278467
#        290817
#        304455
#        318630
#        333120
#        346162
#
# Disc length: 4772 seconds
#
# Revision: 1
# Processed by: cddbd v1.5.2PL0 Copyright (c) Steve Scherf et al.
# Submitted via: ExactAudioCopy v1.1
#
DISCID=6c12a21a
DTITLE=Muddy Waters - Akella Presents - Greatest Bluesmen - vol. 19  C
DTITLE=D2
DYEAR=2017
DGENRE=Blues
TTITLE0=All Aboard
TTITLE1=I Love the Life I Live, I Live the Life I Love
TTITLE2=Mini Dress
TTITLE3=Got My Mojo Working
TTITLE4=She's Nineteen Years Old
TTITLE5=Mean Mistreater
TTITLE6=She's Into Something
TTITLE7=Look What You've Done
TTITLE8=You Shook Me
TTITLE9=You Need Love
TTITLE10=My Home Is in the Delta
TTITLE11=The Same Thing
TTITLE12=Long Distance
TTITLE13=My Captain
TTITLE14=You Gonna Need My Help
TTITLE15=Country Boy
TTITLE16=Put Me in Your Lay Away
TTITLE17=Screamin' And Cryin
TTITLE18=Gypsy Woman
TTITLE19=Walkin' Blues
TTITLE20=The Same Thing
TTITLE21=Sad Letter Blues
TTITLE22=Early Morning Blues
TTITLE23=Too Young To Know
TTITLE24=Down South Blues
TTITLE25=Kind Hearted Woman
EXTD=
EXTT0=
EXTT1=
EXTT2=
EXTT3=
EXTT4=
EXTT5=
EXTT6=
EXTT7=
EXTT8=
EXTT9=
EXTT10=
EXTT11=
EXTT12=
EXTT13=
EXTT14=
EXTT15=
EXTT16=
EXTT17=
EXTT18=
EXTT19=
EXTT20=
EXTT21=
EXTT22=
EXTT23=
EXTT24=
EXTT25=
PLAYORDER=
